PathFileType	4	(X/Y/Z)	Run_400 02
DataRate	CameraRate	NumFrames	NumMarkers	Units	OrigDataRate	OrigDataStartFrame	OrigNumFrames
100	100	4	42	mm	100	114	128
Frame#	Time	LASI			RASI			LPSI			RPSI			RTH1			RTH2			RTH3			LTH1			LTH2			LTH3			RTB1			RTB2			RTB3			LTB1			LTB2			LTB3			RCAL			RTOE			RMT5			LCAL			LTOE			LMT5			LACR			RACR			CLAV			C7			RUA1			RUA2			RUA3			RLEL			RMEL			LUA1			LUA2			LUA3			LLEL			LMEL			RFAsuperior			RFAradius			RFAulna			LFAsuperior			LFAradius			LFAulna			
		X1	Y1	Z1	X2	Y2	Z2	X3	Y3	Z3	X4	Y4	Z4	X5	Y5	Z5	X6	Y6	Z6	X7	Y7	Z7	X8	Y8	Z8	X9	Y9	Z9	X10	Y10	Z10	X11	Y11	Z11	X12	Y12	Z12	X13	Y13	Z13	X14	Y14	Z14	X15	Y15	Z15	X16	Y16	Z16	X17	Y17	Z17	X18	Y18	Z18	X19	Y19	Z19	X20	Y20	Z20	X21	Y21	Z21	X22	Y22	Z22	X23	Y23	Z23	X24	Y24	Z24	X25	Y25	Z25	X26	Y26	Z26	X27	Y27	Z27	X28	Y28	Z28	X29	Y29	Z29	X30	Y30	Z30	X31	Y31	Z31	X32	Y32	Z32	X33	Y33	Z33	X34	Y34	Z34	X35	Y35	Z35	X36	Y36	Z36	X37	Y37	Z37	X38	Y38	Z38	X39	Y39	Z39	X40	Y40	Z40	X41	Y41	Z41	X42	Y42	Z42	

106	1.82	917.9663860000001	998.338555	-437.974974	896.312529	1009.016044	-201.929204	751.604827	1057.604835	-389.715712	742.670804	1064.500288	-289.954638	752.7849189999999	779.97046	-156.901671	778.5421239999999	680.6745969999999	-166.754338	686.400177	618.482472	-184.85959	929.329488	821.3967	-498.502672	1019.163155	744.141022	-475.021153	1009.475073	626.150857	-451.23592	552.43753	454.674687	-251.957072	462.141587	468.381208	-211.390128	369.70679	408.513201	-277.412287	1120.713823	464.405025	-382.257005	1092.794465	372.283891	-441.341592	1156.289367	279.437277	-369.408297	266.681262	479.259456	-304.504137	241.941479	261.316896	-332.676975	192.851127	300.533282	-240.694216	1102.15854	122.417207	-356.667383	1306.509586	199.284997	-336.675199	1290.066086	142.398038	-430.341473	904.681197	1490.509126	-501.256629	935.55949	1496.680662	-215.325317	1001.843169	1417.037549	-348.873879	861.811909	1518.634779	-348.873546	907.327148	1419.256427	-97.22415100000001	836.136228	1364.56194	-82.189358	884.753797	1325.898662	-17.662182	870.51926	1261.501745	27.352067	828.576083	1219.191723	-24.461321	795.37469	1435.415525	-575.561513	744.993561	1397.48759	-513.290192	728.632394	1362.030619	-593.609092	660.489551	1300.010446	-607.076689	650.965103	1280.84864	-535.42413	978.048355	1258.88578	-20.711319	1053.530253	1256.682756	-135.619965	1062.515506	1196.669395	-103.257321	768.2684870000001	1255.448308	-613.234135	875.2166549999999	1175.497481	-555.231615	832.4427899999999	1143.829949	-604.366903	
107	1.83	917.431496	995.35998	-438.421605	896.498434	1006.681994	-201.523983	751.4917840000001	1051.911118	-389.883777	742.292906	1058.660884	-290.063923	759.305691	774.605815	-156.128798	787.801055	675.415306	-164.914919	697.95147	610.569565	-182.956583	926.36584	814.763312	-497.548675	1014.733815	734.691424	-475.936509	1003.787555	618.389678	-449.667419	561.478122	455.759642	-251.275773	472.504874	475.674315	-209.817109	375.514672	425.862237	-277.146197	1111.104599	454.840628	-380.980963	1081.882039	361.917049	-440.076714	1142.59947	267.932333	-367.92788	278.895392	505.321461	-300.554395	235.205295	291.28336	-333.640298	191.204535	331.944569	-239.782973	1085.688053	111.098253	-354.2568	1291.956218	186.163945	-339.275875	1271.737431	130.012189	-432.966749	906.304469	1485.939858	-502.769224	933.644309	1492.714578	-216.443183	1001.364779	1412.660053	-348.478203	861.679583	1515.156113	-350.886518	902.289095	1416.736541	-98.197361	829.491381	1363.88237	-84.634389	875.959152	1324.325514	-18.120746	859.147272	1260.667304	26.871419	816.73594	1219.477062	-25.389894	798.723518	1428.899819	-579.070888	747.1809490000001	1391.509481	-517.722158	732.793107	1354.650719	-597.6279929999999	665.569921	1291.719393	-611.745998	655.200225	1272.553336	-540.213334	967.4009600000001	1252.955361	-18.997225	1045.320394	1245.979276	-132.208026	1051.225384	1186.324334	-98.599306	774.3155410000001	1249.10477	-616.358696	881.605467	1171.112765	-556.5748579999999	840.563615	1138.798602	-606.673959	
108	1.84	916.90277	991.2593890000001	-439.579579	896.939816	1002.695426	-201.40551	751.204838	1045.427359	-389.594193	741.907586	1051.616268	-289.505308	765.939302	767.534954	-154.751322	797.631356	669.096905	-162.51199	710.408158	601.768731	-180.583268	924.790074	808.56443	-495.737752	1011.832272	727.679549	-475.729378	998.320496	610.304768	-447.22918	572.442074	455.71055	-248.990513	485.615614	481.910369	-207.997905	384.77947	442.138399	-276.004109	1099.279802	443.13466	-378.784271	1067.766699	350.331565	-438.883654	1124.231957	254.129354	-366.281339	296.025399	529.432969	-297.486389	233.13653	320.719152	-332.879372	193.962466	363.655391	-238.149337	1062.906619	101.213596	-351.843312	1271.593138	168.411894	-340.912458	1246.806387	113.114347	-434.93802	907.551171	1480.135005	-504.053788	931.320324	1487.603366	-217.254131	1000.646446	1407.329384	-347.851469	860.938186	1510.413857	-352.743063	896.436274	1413.286295	-99.173828	822.445326	1362.289804	-87.040013	866.539409	1321.711766	-18.873691	846.603714	1258.975736	26.041302	803.675571	1219.046486	-26.766667	802.1238540000001	1421.181655	-582.752463	749.064996	1384.159902	-522.798901	737.385721	1345.666757	-602.370081	671.291457	1281.893525	-617.406284	659.744828	1262.697266	-546.085594	955.31906	1245.735435	-17.191093	1035.862651	1233.460334	-127.985206	1038.244593	1174.118687	-93.186677	780.993522	1241.221697	-620.412222	888.255585	1165.369348	-558.144267	849.4001019999999	1132.255423	-609.123144	
109	1.85	916.449967	985.818664	-440.985343	897.680084	997.077234	-201.542081	750.9149190000001	1038.013978	-389.241885	741.307091	1043.521583	-288.591382	772.868694	759.1501960000001	-153.166929	808.00688	661.973868	-159.764984	723.554716	592.368914	-177.881718	924.252808	802.041651	-493.299217	1009.389578	721.548868	-473.482571	992.058125	601.3238700000001	-444.825343	585.233746	454.528509	-244.985978	501.151346	487.231116	-205.867752	397.306169	457.057405	-273.919576	1085.985741	429.112719	-376.409507	1050.733075	337.995901	-437.3551	1103.778174	239.243766	-364.463985	316.982996	551.3920429999999	-295.813725	236.172803	348.693188	-330.206088	201.412549	394.960394	-235.686334	1036.704774	95.427954	-348.63279	1247.796277	145.275121	-340.590354	1217.660853	92.64396499999999	-435.732909	908.496452	1473.168457	-505.069296	928.689204	1481.424208	-217.698431	999.810245	1401.092383	-347.033594	859.659142	1504.288218	-354.356048	889.805289	1408.793142	-100.095661	814.940012	1359.690738	-89.392194	856.467481	1318.055239	-19.944983	832.975785	1256.475082	24.792865	789.6407840000001	1217.923698	-28.726669	805.6031400000001	1412.301634	-586.536531	750.718904	1375.332471	-528.459282	742.458183	1335.224972	-607.642385	677.670211	1270.720064	-623.898641	664.59631	1251.39346	-552.863564	941.884543	1237.324508	-15.302191	1025.063235	1219.410479	-123.14103	1023.557131	1160.336527	-87.09407400000001	788.252669	1231.925931	-624.982918	895.1442050000001	1158.241239	-559.889998	858.934074	1124.251135	-611.54842	
